<svg width="24" height="24" viewBox="0 0 24 24" fill="none" xmlns="http://www.w3.org/2000/svg">
<g clip-path="url(#clip0_5_32)">
<path d="M10.85 20C10.85 20.305 10.9712 20.5975 11.1868 20.8132C11.4025 21.0288 11.695 21.15 12 21.15C12.305 21.15 12.5975 21.0288 12.8132 20.8132C13.0288 20.5975 13.15 20.305 13.15 20V13.15H20C20.305 13.15 20.5975 13.0288 20.8132 12.8132C21.0288 12.5975 21.15 12.305 21.15 12C21.15 11.695 21.0288 11.4025 20.8132 11.1868C20.5975 10.9712 20.305 10.85 20 10.85H13.15V4C13.15 3.695 13.0288 3.40249 12.8132 3.18683C12.5975 2.97116 12.305 2.85 12 2.85C11.695 2.85 11.4025 2.97116 11.1868 3.18683C10.9712 3.40249 10.85 3.695 10.85 4V10.85H4C3.695 10.85 3.40249 10.9712 3.18683 11.1868C2.97116 11.4025 2.85 11.695 2.85 12C2.85 12.305 2.97116 12.5975 3.18683 12.8132C3.40249 13.0288 3.695 13.15 4 13.15H10.85V20Z" fill="white" stroke="white" stroke-width="0.3"/>
</g>
<defs>
<clipPath id="clip0_5_32">
<rect width="24" height="24" fill="white"/>
</clipPath>
</defs>
</svg>
