<svg width="24" height="24" viewBox="0 0 24 24" fill="none" xmlns="http://www.w3.org/2000/svg">
<path d="M11.6203 3.74296L11.6201 3.7438C11.5525 4.0039 11.5196 4.12773 11.485 4.25025C11.3941 4.57126 11.2363 5.11642 11.0116 5.88623C11.0101 5.89039 11.0082 5.89442 11.0059 5.89825L8.4244 9.92041C8.42438 9.92044 8.42436 9.92048 8.42434 9.92051C7.8354 10.8358 6.96751 11.5397 5.94746 11.9292L5.52122 12.0915L5.52117 12.0916C4.93293 12.3158 4.44269 12.7392 4.13679 13.2876C3.83089 13.8361 3.72899 14.4744 3.8491 15.0903C3.8491 15.0904 3.84911 15.0904 3.84911 15.0904L4.21331 16.9616L4.21331 16.9616C4.32724 17.5464 4.60715 18.0862 5.01975 18.5173C5.43235 18.9485 5.96035 19.2528 6.54117 19.3944L13.4178 21.0719L13.4179 21.0719C14.5651 21.3516 15.7769 21.1692 16.7899 20.5644C17.8029 19.9596 18.5353 18.981 18.8273 17.8414L18.6335 17.7917L18.8273 17.8414L20.1029 12.8627C20.2208 12.4026 20.2315 11.9217 20.1341 11.4568C20.0367 10.9919 19.8339 10.5554 19.5411 10.1806C19.2483 9.80575 18.8734 9.50254 18.4451 9.29403C18.0167 9.08553 17.5462 8.97722 17.0694 8.97733C17.0694 8.97733 17.0694 8.97733 17.0694 8.97733H15.6958C16.0935 7.63013 16.2985 6.56326 16.2985 5.76763C16.2985 4.64396 16.0353 3.65844 15.5381 2.9477C15.0369 2.23117 14.3005 1.8 13.3877 1.8C12.878 1.8 12.5048 1.9529 12.2228 2.30086C11.9565 2.62952 11.7859 3.11692 11.6203 3.74296ZM6.57215 13.5598L6.57245 13.5597C7.94199 13.0368 9.10758 12.0914 9.89851 10.8616L9.89857 10.8615L12.483 6.83764C12.483 6.83763 12.483 6.83763 12.483 6.83762C12.5752 6.69454 12.645 6.54101 12.6918 6.37758C12.9189 5.60177 13.0784 5.04995 13.17 4.72287C13.2204 4.5449 13.2685 4.36632 13.3144 4.18718C13.399 3.8673 13.4608 3.67693 13.5013 3.56897C13.503 3.56426 13.5047 3.55974 13.5064 3.55539C13.764 3.5944 14.0003 3.76252 14.1869 4.0812C14.4048 4.4533 14.5454 5.01984 14.5454 5.76763C14.5454 6.52532 14.2614 7.79995 13.6686 9.57506L13.6685 9.5752C13.6248 9.70638 13.613 9.84605 13.6341 9.98269C13.6552 10.1193 13.7085 10.249 13.7897 10.361C13.8709 10.473 13.9775 10.5641 14.1008 10.627C14.2241 10.6899 14.3606 10.7227 14.499 10.7229H14.4992H17.0685C17.184 10.7229 17.297 10.7372 17.408 10.7659L17.4089 10.7661C17.5843 10.8106 17.7492 10.889 17.8941 10.9968C18.039 11.1046 18.161 11.2397 18.2534 11.3944C18.3457 11.549 18.4064 11.7202 18.4322 11.8981C18.458 12.0761 18.4483 12.2573 18.4037 12.4316L17.1281 17.4093C17.1281 17.4093 17.1281 17.4093 17.1281 17.4093C16.9503 18.1026 16.5046 18.6983 15.8875 19.0666C15.2703 19.4349 14.5318 19.546 13.8327 19.3754L13.79 19.5502L13.8327 19.3754L6.95601 17.6979C6.956 17.6979 6.95599 17.6979 6.95599 17.6979C6.70023 17.6355 6.46794 17.5015 6.28651 17.3119C6.10509 17.1224 5.98213 16.8852 5.93203 16.6285C5.93203 16.6285 5.93203 16.6285 5.93203 16.6285L5.56694 14.7574C5.52559 14.5449 5.56075 14.3248 5.66636 14.1355C5.77198 13.9462 5.94139 13.7997 6.14504 13.7221L6.57215 13.5598Z" fill="white" stroke="white" stroke-width="0.4"/>
</svg>
